<svg width="512" height="512" viewBox="0 0 512 512" fill="none" xmlns="http://www.w3.org/2000/svg">
<g clip-path="url(#clip0_749_142)">
<rect width="512" height="512" fill="white"/>
<path d="M428.237 196.267C429.995 201.241 433.248 205.55 437.549 208.605C441.851 211.66 446.991 213.311 452.267 213.333H486.4C493.19 213.333 499.701 210.636 504.502 205.835C509.303 201.034 512 194.523 512 187.733V25.6C512 18.8105 509.303 12.299 504.502 7.49807C499.701 2.69713 493.19 0 486.4 0L452.267 0C446.991 0.0218707 441.851 1.67325 437.549 4.72822C433.248 7.78318 429.995 12.0925 428.237 17.0667H251.127C240.11 17.0578 229.303 20.0873 219.895 25.8219L82.1333 109.764C76.766 113.002 72.6077 117.91 70.295 123.736C67.9822 129.562 67.6425 135.986 69.3279 142.024C71.0132 148.061 74.6307 153.38 79.6266 157.166C84.6225 160.952 90.7215 162.997 96.9899 162.987C104.747 162.987 108.186 160.427 130.406 153.361C112.053 175.804 100.061 202.762 95.6822 231.421C91.3037 260.08 94.6994 289.389 105.515 316.288C98.2819 315.666 91.0182 315.481 83.7632 315.733C82.0046 310.759 78.7522 306.45 74.4508 303.395C70.1494 300.34 65.0092 298.689 59.7333 298.667H25.6C18.8105 298.667 12.299 301.364 7.49807 306.165C2.69713 310.966 0 317.477 0 324.267L0 486.4C0 493.19 2.69713 499.701 7.49807 504.502C12.299 509.303 18.8105 512 25.6 512H59.7333C65.0092 511.978 70.1494 510.327 74.4508 507.272C78.7522 504.217 82.0046 499.908 83.7632 494.933H260.864C271.882 494.942 282.688 491.913 292.096 486.178L429.858 402.236C435.912 398.595 440.408 392.847 442.485 386.095C444.562 379.343 444.073 372.061 441.112 365.648C438.151 359.234 432.926 354.139 426.44 351.34C419.954 348.541 412.663 348.235 405.965 350.481L381.611 358.622C399.96 336.179 411.948 309.222 416.325 280.565C420.702 251.907 417.307 222.601 406.494 195.703C413.724 196.324 420.984 196.512 428.237 196.267ZM452.267 17.0667H486.4C488.663 17.0667 490.834 17.9657 492.434 19.566C494.034 21.1663 494.933 23.3368 494.933 25.6V187.733C494.933 189.997 494.034 192.167 492.434 193.767C490.834 195.368 488.663 196.267 486.4 196.267H452.267C450.004 196.267 447.833 195.368 446.233 193.767C444.632 192.167 443.733 189.997 443.733 187.733V25.6C443.733 23.3368 444.632 21.1663 446.233 19.566C447.833 17.9657 450.004 17.0667 452.267 17.0667ZM100.634 145.331C97.9254 146.216 94.9863 146.076 92.3748 144.937C89.7633 143.797 87.6613 141.738 86.4682 139.151C85.2751 136.564 85.0739 133.628 85.903 130.902C86.7321 128.176 88.5336 125.85 90.9653 124.365L228.787 40.3883C235.516 36.2857 243.247 34.1211 251.127 34.1333H426.667V179.2H415.394C376.038 179.2 367.266 145.067 326.477 145.067H285.602C267.153 145.067 248.508 125.278 259.806 110.933H321.357C338.288 110.736 354.704 105.087 368.171 94.8224C370.054 93.5652 371.36 91.6115 371.803 89.3911C372.245 87.1706 371.787 84.8654 370.53 82.9824C369.273 81.0994 367.319 79.793 365.099 79.3505C362.878 78.908 360.573 79.3657 358.69 80.6229C348.037 89.0167 334.918 93.6707 321.357 93.8667H258.807C256.043 93.9692 253.301 94.4047 250.641 95.1637L100.634 145.331ZM59.7333 494.933H25.6C23.3368 494.933 21.1663 494.034 19.566 492.434C17.9657 490.834 17.0667 488.663 17.0667 486.4V324.267C17.0667 322.004 17.9657 319.833 19.566 318.233C21.1663 316.632 23.3368 315.733 25.6 315.733H59.7333C61.9965 315.733 64.167 316.632 65.7673 318.233C67.3676 319.833 68.2667 322.004 68.2667 324.267V486.4C68.2667 488.663 67.3676 490.834 65.7673 492.434C64.167 494.034 61.9965 494.933 59.7333 494.933ZM411.358 366.669C414.066 365.784 417.005 365.924 419.617 367.063C422.228 368.203 424.33 370.262 425.523 372.849C426.716 375.436 426.918 378.372 426.088 381.098C425.259 383.824 423.458 386.15 421.026 387.635L283.213 471.612C276.48 475.713 268.747 477.877 260.864 477.867H85.3333V332.8H96.5973C135.945 332.8 144.708 366.933 185.515 366.933H226.389C244.804 366.933 263.484 386.722 252.186 401.067H190.635C173.704 401.26 157.289 406.914 143.829 417.186C142.007 418.467 140.758 420.41 140.349 422.6C139.939 424.789 140.403 427.052 141.639 428.905C142.876 430.757 144.788 432.053 146.967 432.515C149.146 432.977 151.419 432.569 153.301 431.377C163.954 422.983 177.074 418.329 190.635 418.133H253.184C255.948 418.03 258.69 417.594 261.35 416.836L411.358 366.669ZM344.158 371.149L272.683 395.042C275.132 374.562 254.438 349.815 226.389 349.815H185.515C161.015 349.815 146.97 329.941 126.677 321.655C111.271 291.46 106.953 256.815 114.476 223.762C121.999 190.709 140.885 161.345 167.842 140.791L239.309 116.898C236.86 137.378 257.562 162.125 285.602 162.125H326.477C351.735 162.125 363.349 181.325 385.357 190.285C400.761 220.483 405.075 255.132 397.546 288.186C390.016 321.24 371.122 350.601 344.158 371.149Z" fill="url(#paint0_linear_749_142)"/>
<path d="M226.133 140.049C225.413 137.904 223.871 136.132 221.845 135.124C219.819 134.116 217.476 133.954 215.33 134.673C198.621 140.275 183.249 149.266 170.177 161.084C157.105 172.903 146.613 187.293 139.36 203.354C132.107 219.414 128.249 236.8 128.027 254.421C127.805 272.042 131.223 289.52 138.069 305.758C138.954 307.841 140.63 309.488 142.729 310.335C144.828 311.182 147.177 311.161 149.261 310.276C151.344 309.392 152.99 307.715 153.838 305.617C154.685 303.518 154.664 301.168 153.779 299.085C147.853 285.014 144.895 269.87 145.091 254.603C145.287 239.336 148.633 224.274 154.919 210.359C161.204 196.445 170.294 183.978 181.62 173.738C192.946 163.499 206.264 155.708 220.74 150.852C221.804 150.498 222.787 149.937 223.634 149.202C224.481 148.467 225.175 147.572 225.676 146.569C226.177 145.565 226.475 144.473 226.553 143.355C226.632 142.236 226.489 141.113 226.133 140.049Z" fill="url(#paint1_linear_749_142)"/>
<path d="M358.221 212.916C364.147 226.987 367.105 242.13 366.909 257.397C366.713 272.665 363.367 287.727 357.081 301.641C350.796 315.556 341.705 328.023 330.379 338.263C319.053 348.502 305.736 356.293 291.26 361.148C289.11 361.868 287.334 363.412 286.322 365.441C285.311 367.471 285.147 369.818 285.867 371.968C286.586 374.118 288.131 375.895 290.16 376.906C292.189 377.917 294.537 378.081 296.687 377.362C313.398 371.759 328.772 362.765 341.846 350.944C354.92 339.122 365.411 324.728 372.663 308.664C379.914 292.599 383.77 275.21 383.988 257.586C384.206 239.961 380.782 222.482 373.931 206.243C373.046 204.159 371.37 202.513 369.271 201.666C367.172 200.818 364.822 200.839 362.739 201.724C360.656 202.609 359.01 204.285 358.162 206.384C357.315 208.483 357.336 210.832 358.221 212.916Z" fill="url(#paint2_linear_749_142)"/>
<path d="M307.2 285.867C307.2 266.522 289.033 250.991 264.533 248.022V205.594C279.04 208.043 290.133 216.414 290.133 226.134C290.133 228.397 291.032 230.567 292.633 232.168C294.233 233.768 296.404 234.667 298.667 234.667C300.93 234.667 303.1 233.768 304.701 232.168C306.301 230.567 307.2 228.397 307.2 226.134C307.2 206.789 289.033 191.258 264.533 188.288V179.2C264.533 176.937 263.634 174.767 262.034 173.166C260.434 171.566 258.263 170.667 256 170.667C253.737 170.667 251.566 171.566 249.966 173.166C248.366 174.767 247.467 176.937 247.467 179.2V188.288C222.968 191.258 204.8 206.789 204.8 226.134C204.8 245.479 222.968 261.009 247.467 263.979V306.407C232.96 303.958 221.867 295.586 221.867 285.867C221.867 283.604 220.968 281.433 219.367 279.833C217.767 278.233 215.597 277.334 213.333 277.334C211.07 277.334 208.9 278.233 207.299 279.833C205.699 281.433 204.8 283.604 204.8 285.867C204.8 305.212 222.968 320.743 247.467 323.712V332.8C247.467 335.064 248.366 337.234 249.966 338.834C251.566 340.435 253.737 341.334 256 341.334C258.263 341.334 260.434 340.435 262.034 338.834C263.634 337.234 264.533 335.064 264.533 332.8V323.712C289.033 320.743 307.2 305.212 307.2 285.867ZM221.867 226.134C221.867 216.414 232.96 208.043 247.467 205.594V246.673C232.96 244.224 221.867 235.853 221.867 226.134ZM264.533 306.407V265.327C279.04 267.776 290.133 276.148 290.133 285.867C290.133 295.586 279.04 303.958 264.533 306.407Z" fill="url(#paint3_linear_749_142)"/>
</g>
<defs>
<linearGradient id="paint0_linear_749_142" x1="256" y1="0" x2="256" y2="512" gradientUnits="userSpaceOnUse">
<stop stop-color="#013878"/>
<stop offset="1" stop-color="#ED1E30"/>
</linearGradient>
<linearGradient id="paint1_linear_749_142" x1="177.295" y1="134.23" x2="177.295" y2="310.956" gradientUnits="userSpaceOnUse">
<stop stop-color="#013878"/>
<stop offset="1" stop-color="#ED1E30"/>
</linearGradient>
<linearGradient id="paint2_linear_749_142" x1="334.711" y1="201.045" x2="334.711" y2="377.804" gradientUnits="userSpaceOnUse">
<stop stop-color="#013878"/>
<stop offset="1" stop-color="#ED1E30"/>
</linearGradient>
<linearGradient id="paint3_linear_749_142" x1="256" y1="170.667" x2="256" y2="341.334" gradientUnits="userSpaceOnUse">
<stop stop-color="#013878"/>
<stop offset="1" stop-color="#ED1E30"/>
</linearGradient>
<clipPath id="clip0_749_142">
<rect width="512" height="512" fill="white"/>
</clipPath>
</defs>
</svg>
