<svg width="512" height="512" viewBox="0 0 512 512" fill="none" xmlns="http://www.w3.org/2000/svg">
<rect width="512" height="512" fill="white"/>
<path d="M144.8 337.6L101.6 328C89.6002 325.6 79.2002 334.4 79.2002 346.4V364.8C79.2002 379.2 90.4002 381.6 104 382.4H153.6C162.4 382.4 169.6 379.2 169.6 370.4V368C168.8 352.8 159.2 340.8 144.8 337.6ZM94.4002 365.6C94.4002 352 94.4002 344.8 94.4002 345.6C94.4002 343.2 96.0002 341.6 98.4002 342.4L142.4 352C148.8 353.6 153.6 359.2 154.4 365.6C152.8 366.4 95.2002 366.4 94.4002 365.6Z" fill="url(#paint0_linear_749_188)"/>
<path d="M410.4 328L366.4 337.6C352 340.8 342.4 352.8 342.4 367.2C342.4 368 340.8 378.4 352 380.8C357.6 382.4 393.6 381.6 408.8 381.6C422.4 381.6 432.8 378.4 432.8 364V345.6C433.6 334.4 422.4 325.6 410.4 328ZM417.6 365.6C415.2 366.4 359.2 366.4 358.4 366.4C359.2 360 363.2 354.4 369.6 352.8L413.6 343.2C416 342.4 417.6 344 417.6 346.4V365.6Z" fill="url(#paint1_linear_749_188)"/>
<path d="M309.6 374.4H202.4C198.4 374.4 194.4 377.6 194.4 382.4C194.4 387.2 197.6 390.4 202.4 390.4H309.6C313.6 390.4 317.6 387.2 317.6 382.4C317.6 377.6 314.4 374.4 309.6 374.4Z" fill="url(#paint2_linear_749_188)"/>
<path d="M309.6 407.2H202.4C198.4 407.2 194.4 410.4 194.4 415.2C194.4 420 197.6 423.2 202.4 423.2H309.6C313.6 423.2 317.6 420 317.6 415.2C317.6 410.4 314.4 407.2 309.6 407.2Z" fill="url(#paint3_linear_749_188)"/>
<path d="M480 241.6H465.6C452 241.6 439.2 248 432 260L417.6 231.2C459.2 212 488 170.4 488 121.6C487.2 54.4 432.8 0 366.4 0C300 0 245.6 54.4 245.6 120.8C245.6 135.2 248 148.8 252.8 161.6H156C137.6 161.6 120.8 172.8 114.4 189.6L80.8001 259.2C73.6001 248 60.8001 240.8 47.2001 240.8H32.0001C20.0001 240.8 9.6001 251.2 9.6001 263.2V272.8C9.6001 284.8 19.2001 295.2 32.0001 295.2H55.2001C45.6001 307.2 40.8001 322.4 40.8001 338.4V389.6C40.8001 408.8 48.0001 428 61.6001 444V482.4C61.6001 499.2 75.2001 512 91.2001 512H123.2C140 512 152.8 498.4 152.8 482.4V467.2H358.4V482.4C358.4 499.2 372 512 388 512H420C436.8 512 449.6 498.4 449.6 482.4V444C463.2 428.8 470.4 410.4 470.4 390.4V339.2C470.4 329.6 468 319.2 464 310.4C461.6 305.6 459.2 300.8 455.2 296H480C492 296 502.4 286.4 502.4 273.6V264C501.6 251.2 492 241.6 480 241.6ZM366.4 16C424.8 16 472 63.2 472 120.8C472 178.4 424.8 225.6 367.2 225.6C309.6 225.6 262.4 178.4 262.4 120.8C262.4 63.2 308.8 16 366.4 16ZM128.8 196C132.8 184.8 144 177.6 156 177.6H260C280 216 320 241.6 366.4 241.6C379.2 241.6 391.2 240 402.4 236C403.2 236.8 422.4 277.6 425.6 283.2H85.6001C88.8001 278.4 84.0001 289.6 128.8 196ZM25.6001 272.8V263.2C25.6001 259.2 28.8001 256 32.0001 256H46.4001C64.0001 256 70.4001 272 72.0001 274.4C71.2001 276 69.6001 277.6 68.8001 279.2H32.0001C28.8001 279.2 25.6001 276.8 25.6001 272.8ZM137.6 481.6C137.6 489.6 131.2 496 123.2 496H91.2001C83.2001 496 76.8001 489.6 76.8001 481.6V456C87.2001 462.4 99.2001 465.6 111.2 465.6H137.6V481.6ZM420.8 496H388.8C380.8 496 374.4 489.6 374.4 481.6V466.4H400.8C412.8 466.4 424.8 463.2 435.2 456.8V482.4C435.2 489.6 428.8 496 420.8 496ZM456 388.8C456 420.8 432.8 450.4 400.8 450.4C302.4 450.4 220 450.4 111.2 450.4C79.2001 450.4 56.0001 420 56.0001 388.8V337.6C56.0001 323.2 61.6001 308.8 72.8001 298.4H440C444.8 303.2 448.8 308.8 452 315.2C455.2 322.4 456.8 330.4 456.8 337.6V388.8H456ZM486.4 272.8C486.4 276.8 483.2 279.2 480 279.2H443.2C441.6 277.6 440.8 276 440 274.4C442.4 272 448 256 465.6 256H480C484 256 486.4 259.2 486.4 262.4V272.8Z" fill="url(#paint4_linear_749_188)"/>
<path d="M342.4 152.8C342.4 148.8 339.2 144.8 334.4 144.8C329.6 144.8 326.4 148 326.4 152.8C326.4 172 340 188 358.4 191.2V201.6C358.4 205.6 361.6 209.6 366.4 209.6C371.2 209.6 374.4 206.4 374.4 201.6V191.2C392.8 187.2 406.4 172 406.4 152.8C406.4 133.6 392.8 117.6 374.4 114.4V66.4C384 69.6 390.4 78.4 390.4 88.8C390.4 92.8 393.6 96.8 398.4 96.8C403.2 96.8 406.4 93.6 406.4 88.8C406.4 69.6 392.8 53.6 374.4 50.4V40C374.4 36 371.2 32 366.4 32C361.6 32 358.4 35.2 358.4 40V50.4C340 54.4 326.4 69.6 326.4 88.8C326.4 108 340 124 358.4 127.2V174.4C349.6 172 342.4 163.2 342.4 152.8ZM390.4 152.8C390.4 163.2 383.2 172 374.4 175.2V130.4C384 132.8 390.4 142.4 390.4 152.8ZM342.4 88.8C342.4 78.4 349.6 69.6 358.4 66.4V112C349.6 108 342.4 99.2 342.4 88.8Z" fill="url(#paint5_linear_749_188)"/>
<defs>
<linearGradient id="paint0_linear_749_188" x1="124.4" y1="327.604" x2="124.4" y2="382.4" gradientUnits="userSpaceOnUse">
<stop stop-color="#013877"/>
<stop offset="1" stop-color="#ED1E2E"/>
</linearGradient>
<linearGradient id="paint1_linear_749_188" x1="387.581" y1="327.603" x2="387.581" y2="381.8" gradientUnits="userSpaceOnUse">
<stop stop-color="#013877"/>
<stop offset="1" stop-color="#ED1E2E"/>
</linearGradient>
<linearGradient id="paint2_linear_749_188" x1="256" y1="374.4" x2="256" y2="390.4" gradientUnits="userSpaceOnUse">
<stop stop-color="#013877"/>
<stop offset="1" stop-color="#ED1E2E"/>
</linearGradient>
<linearGradient id="paint3_linear_749_188" x1="256" y1="407.2" x2="256" y2="423.2" gradientUnits="userSpaceOnUse">
<stop stop-color="#013877"/>
<stop offset="1" stop-color="#ED1E2E"/>
</linearGradient>
<linearGradient id="paint4_linear_749_188" x1="256" y1="0" x2="256" y2="512" gradientUnits="userSpaceOnUse">
<stop stop-color="#013877"/>
<stop offset="1" stop-color="#ED1E2E"/>
</linearGradient>
<linearGradient id="paint5_linear_749_188" x1="366.4" y1="32" x2="366.4" y2="209.6" gradientUnits="userSpaceOnUse">
<stop stop-color="#013877"/>
<stop offset="1" stop-color="#ED1E2E"/>
</linearGradient>
</defs>
</svg>
