<svg width="512" height="512" viewBox="0 0 512 512" fill="none" xmlns="http://www.w3.org/2000/svg">
<rect width="512" height="512" fill="white"/>
<path d="M296 296V288H280C277.878 288 275.843 287.157 274.343 285.657C272.843 284.157 272 282.122 272 280C272 277.878 272.843 275.843 274.343 274.343C275.843 272.843 277.878 272 280 272H308C311.183 272 314.235 270.736 316.485 268.485C318.736 266.235 320 263.183 320 260C320 256.817 318.736 253.765 316.485 251.515C314.235 249.264 311.183 248 308 248H300C292.927 248.015 286.112 245.347 280.929 240.535C275.746 235.722 272.581 229.122 272.074 222.067C271.566 215.013 273.753 208.028 278.194 202.523C282.634 197.017 288.998 193.401 296 192.404V184C296 181.878 296.843 179.843 298.343 178.343C299.843 176.843 301.878 176 304 176C306.122 176 308.157 176.843 309.657 178.343C311.157 179.843 312 181.878 312 184V192H328C330.122 192 332.157 192.843 333.657 194.343C335.157 195.843 336 197.878 336 200C336 202.122 335.157 204.157 333.657 205.657C332.157 207.157 330.122 208 328 208H300C296.817 208 293.765 209.264 291.515 211.515C289.264 213.765 288 216.817 288 220C288 223.183 289.264 226.235 291.515 228.485C293.765 230.736 296.817 232 300 232H308C315.078 231.977 321.901 234.642 327.09 239.456C332.279 244.269 335.447 250.873 335.955 257.933C336.463 264.992 334.272 271.982 329.826 277.489C325.379 282.995 319.008 286.609 312 287.6V296C312 298.122 311.157 300.157 309.657 301.657C308.157 303.157 306.122 304 304 304C301.878 304 299.843 303.157 298.343 301.657C296.843 300.157 296 298.122 296 296ZM476.328 410.48L337.469 483.633C322.39 491.576 305.636 495.814 288.594 495.994C271.553 496.175 254.713 492.294 239.469 484.673L112 420.938V424C111.993 430.363 109.462 436.464 104.963 440.963C100.463 445.462 94.3631 447.993 88 448H24C21.8783 448 19.8434 447.157 18.3431 445.657C16.8429 444.157 16 442.122 16 440C16 437.878 16.8429 435.843 18.3431 434.343C19.8434 432.843 21.8783 432 24 432H88C90.1211 431.998 92.1549 431.155 93.6547 429.655C95.1546 428.155 95.9981 426.121 96 424V248C95.9981 245.879 95.1546 243.845 93.6547 242.345C92.1549 240.845 90.1211 240.002 88 240H24C21.8783 240 19.8434 239.157 18.3431 237.657C16.8429 236.157 16 234.122 16 232C16 229.878 16.8429 227.843 18.3431 226.343C19.8434 224.843 21.8783 224 24 224H88C94.3631 224.007 100.463 226.538 104.963 231.037C109.462 235.537 111.993 241.637 112 248H172.141C191.98 248.026 211.232 254.729 226.797 267.031L320.359 341.176C328.78 347.853 334.276 357.541 335.686 368.195L451.008 341.988C459.722 340.009 468.858 341.265 476.714 345.523C484.57 349.781 490.61 356.75 493.708 365.131C496.807 373.513 496.752 382.735 493.554 391.079C490.356 399.423 484.234 406.316 476.328 410.48ZM478.922 371.309C477.299 366.397 473.902 362.268 469.395 359.73C464.888 357.191 459.596 356.427 454.554 357.586L334.674 384.833C333.029 390.936 330.021 396.586 325.876 401.358C321.731 406.13 316.557 409.898 310.744 412.38C304.93 414.862 298.63 415.992 292.317 415.685C286.003 415.379 279.842 413.643 274.297 410.61L180.16 359.016C179.239 358.511 178.426 357.83 177.768 357.011C177.11 356.192 176.619 355.251 176.325 354.243C176.03 353.235 175.937 352.178 176.051 351.134C176.165 350.089 176.483 349.077 176.988 348.156C178.007 346.295 179.724 344.916 181.761 344.321C182.77 344.026 183.826 343.933 184.87 344.047C185.915 344.161 186.927 344.479 187.848 344.984L281.984 396.578C287.235 399.444 293.317 400.401 299.195 399.287C305.072 398.172 310.381 395.054 314.218 390.465C316.424 387.821 318.078 384.762 319.083 381.469C320.088 378.175 320.424 374.714 320.07 371.289C319.716 367.864 318.68 364.545 317.023 361.527C315.366 358.508 313.121 355.852 310.422 353.715L216.859 279.57C204.124 269.506 188.372 264.021 172.141 264H112V403.047L246.625 470.359C259.631 476.724 273.945 479.959 288.425 479.807C302.904 479.654 317.147 476.117 330.016 469.479L468.875 396.328C473.254 394.038 476.672 390.26 478.514 385.674C480.355 381.088 480.5 375.992 478.922 371.309ZM330.32 328.656C331.699 329.748 333.405 330.343 335.164 330.344C336.603 330.342 338.015 329.95 339.25 329.211C355.185 322.924 369.147 312.486 379.686 298.98C390.224 285.473 396.954 269.392 399.178 252.406C401.401 235.42 399.036 218.148 392.329 202.385C385.622 186.621 374.817 172.941 361.036 162.764C347.255 152.588 331.001 146.286 313.962 144.514C296.923 142.742 279.72 145.564 264.14 152.686C248.56 159.809 235.171 170.973 225.363 185.019C215.556 199.065 209.687 215.48 208.367 232.56C208.282 233.61 208.405 234.666 208.73 235.668C209.054 236.67 209.573 237.599 210.257 238.4C210.941 239.201 211.776 239.859 212.715 240.336C213.654 240.814 214.678 241.101 215.728 241.182C216.778 241.262 217.834 241.135 218.835 240.807C219.836 240.478 220.762 239.956 221.56 239.269C222.358 238.581 223.013 237.743 223.487 236.803C223.96 235.862 224.243 234.837 224.32 233.786C225.424 219.502 230.344 205.777 238.568 194.046C246.792 182.315 258.017 173.009 271.068 167.101C284.12 161.193 298.519 158.901 312.76 160.463C327.001 162.025 340.561 167.385 352.022 175.981C363.482 184.578 372.423 196.096 377.908 209.331C383.393 222.566 385.222 237.031 383.203 251.215C381.184 265.398 375.391 278.779 366.43 289.957C357.469 301.135 345.67 309.701 332.266 314.758C330.941 315.26 329.773 316.105 328.882 317.206C327.99 318.308 327.408 319.626 327.193 321.027C326.978 322.427 327.14 323.86 327.66 325.178C328.181 326.495 329.042 327.651 330.156 328.527L330.32 328.656ZM113.76 157.004C113.083 156.159 112.585 155.187 112.295 154.144C112.006 153.101 111.931 152.011 112.074 150.938C112.218 149.866 112.578 148.834 113.133 147.904C113.687 146.975 114.424 146.168 115.299 145.531L284.828 22.24C290.429 18.257 297.131 16.1169 304.004 16.1169C310.877 16.1169 317.579 18.257 323.18 22.24L368 54.836V24C368 21.8783 368.843 19.8434 370.343 18.3431C371.843 16.8429 373.878 16 376 16H440C442.122 16 444.157 16.8429 445.657 18.3431C447.157 19.8434 448 21.8783 448 24V113.019L492.703 145.531C493.578 146.168 494.316 146.975 494.87 147.904C495.424 148.834 495.784 149.866 495.928 150.938C496.072 152.011 495.997 153.101 495.707 154.144C495.417 155.187 494.919 156.159 494.242 157.004L471.042 185.964C469.756 187.568 467.901 188.615 465.863 188.888C463.825 189.161 461.76 188.638 460.097 187.429L448 178.633V320C448 322.122 447.157 324.157 445.657 325.657C444.157 327.157 442.122 328 440 328C437.878 328 435.843 327.157 434.343 325.657C432.843 324.157 432 322.122 432 320V166.995L304 73.8904L176 166.995V224C176 226.122 175.157 228.157 173.657 229.657C172.157 231.157 170.122 232 168 232C165.878 232 163.843 231.157 162.343 229.657C160.843 228.157 160 226.122 160 224V178.633L147.906 187.433C146.243 188.642 144.178 189.165 142.14 188.892C140.102 188.619 138.247 187.572 136.961 185.968L113.76 157.004ZM384 66.472L432 101.382V32H384V66.472ZM131.484 153.539L144.672 170L299.297 57.5312C300.663 56.5361 302.31 56 304 56C305.69 56 307.337 56.5361 308.703 57.5312L463.328 170L476.516 153.539L313.766 35.176C310.915 33.1487 307.504 32.0594 304.006 32.0594C300.508 32.0594 297.096 33.1487 294.246 35.176L131.484 153.539Z" fill="url(#paint0_linear_749_185)"/>
<defs>
<linearGradient id="paint0_linear_749_185" x1="256" y1="16" x2="256" y2="496" gradientUnits="userSpaceOnUse">
<stop stop-color="#013878"/>
<stop offset="1" stop-color="#EC1E32"/>
</linearGradient>
</defs>
</svg>
