<svg width="512" height="512" viewBox="0 0 512 512" fill="none" xmlns="http://www.w3.org/2000/svg">
<g clip-path="url(#clip0_804_1924)">
<rect width="512" height="512" fill="white"/>
<g clip-path="url(#clip1_804_1924)">
<path d="M201.673 289.559H201.327C181.968 289.559 166.274 305.252 166.274 324.611V453.948C166.274 473.307 181.968 489 201.327 489H201.673C221.032 489 236.726 473.307 236.726 453.948V324.611C236.726 305.252 221.032 289.559 201.673 289.559Z" fill="black"/>
<path d="M342.986 61.5403H297.983C294.389 54.5444 287.12 49.7467 278.71 49.7467H257.85C251.037 49.7467 244.707 46.4722 240.52 41.0908C231.481 29.4705 217.362 21.9912 201.5 21.9912C185.638 21.9912 171.519 29.4705 162.48 41.0908C158.293 46.4722 151.973 49.7467 145.15 49.7467H124.29C115.88 49.7467 108.611 54.5444 105.017 61.5403H60.0136C54.5592 61.5403 50.1355 65.964 50.1355 71.4184C50.1355 76.8728 54.5592 81.2966 60.0136 81.2966H105.017C108.611 88.2924 115.88 93.0901 124.29 93.0901H145.15C151.963 93.0901 158.293 96.3646 162.48 101.746C171.519 113.366 185.638 120.846 201.5 120.846C217.362 120.846 231.481 113.366 240.52 101.746C244.707 96.3646 251.028 93.0901 257.85 93.0901H278.71C287.12 93.0901 294.389 88.2924 297.983 81.2966H342.986C348.441 81.2966 352.865 76.8728 352.865 71.4184C352.865 65.964 348.441 61.5403 342.986 61.5403ZM201.5 98.7999C186.268 98.7999 173.927 86.4591 173.927 71.2269C173.927 55.9946 186.268 43.6538 201.5 43.6538C216.732 43.6538 229.073 55.9946 229.073 71.2269C229.073 86.4591 216.732 98.7999 201.5 98.7999Z" fill="black"/>
<path d="M314.638 189.792C309.932 165.512 287.74 142.025 263.523 136.662C248.82 133.606 228.818 130.614 201.5 130.56C174.191 130.605 154.189 133.606 139.477 136.662C115.26 142.025 93.0684 165.502 88.3619 189.792C85.4067 204.595 81.7491 245.859 82.0501 273.159C81.7491 300.458 85.4067 341.731 88.3619 356.526C93.0684 380.815 115.26 404.293 139.477 409.656C142.806 410.349 146.427 411.033 150.322 411.69V324.784C150.322 296.573 173.279 273.615 201.491 273.615C229.702 273.615 252.66 296.573 252.66 324.784V411.69C256.555 411.033 260.176 410.349 263.505 409.656C287.722 404.293 309.913 380.815 314.62 356.526C317.575 341.731 321.233 300.458 320.932 273.159C321.233 245.859 317.575 204.586 314.62 189.792H314.638ZM143.827 231.101C143.18 234.431 140.142 237.65 136.813 238.389C134.797 238.809 132.052 239.219 128.303 239.228C124.554 239.228 121.818 238.809 119.793 238.389C116.473 237.65 113.427 234.431 112.779 231.101C112.378 229.067 111.913 220.776 111.913 209.566C111.913 198.357 112.369 190.056 112.779 188.032C113.427 184.702 116.464 181.483 119.793 180.744C121.809 180.324 124.554 179.914 128.303 179.905C132.052 179.905 134.788 180.324 136.813 180.744C140.133 181.483 143.18 184.702 143.827 188.032C144.229 190.066 144.694 198.995 144.694 209.566C144.694 220.785 144.238 229.077 143.827 231.101ZM290.203 231.101C289.555 234.431 286.518 237.65 283.189 238.389C281.173 238.809 278.427 239.219 274.679 239.228C270.93 239.228 268.193 238.809 266.169 238.389C262.848 237.65 259.802 234.431 259.154 231.101C258.753 229.067 258.288 220.776 258.288 209.566C258.288 198.357 258.744 190.056 259.154 188.032C259.802 184.702 262.839 181.483 266.169 180.744C268.184 180.324 270.93 179.914 274.679 179.905C278.427 179.905 281.164 180.324 283.189 180.744C286.509 181.483 289.555 184.702 290.203 188.032C290.604 190.066 291.069 198.995 291.069 209.566C291.069 220.785 290.613 229.077 290.203 231.101Z" fill="black"/>
</g>
<g clip-path="url(#clip2_804_1924)">
<path d="M301.617 255.249C299.554 256.009 298.49 258.297 299.242 260.369L301.754 267.281L320.881 248.153L301.617 255.249Z" fill="black"/>
<path d="M319.721 316.687L331.24 348.365C331.6 349.366 332.352 350.181 333.312 350.621C333.848 350.869 334.424 350.997 335 350.997C335.472 350.997 335.936 350.918 336.384 350.75L349.096 346.062L319.721 316.687Z" fill="black"/>
<path d="M490.755 289.64L477.571 253.394L445.933 285.032L461.612 279.256C463.668 278.472 465.988 279.544 466.748 281.624C467.516 283.696 466.452 286 464.38 286.76L444.46 294.104C444.004 294.272 443.54 294.352 443.076 294.352C441.452 294.352 439.916 293.352 439.324 291.736C439.317 291.712 439.324 291.688 439.317 291.664L405.79 325.191L488.379 294.76C490.451 294 491.514 291.712 490.755 289.64Z" fill="black"/>
<path d="M489.827 224.17L425.829 160.172C424.269 158.612 421.733 158.612 420.173 160.172L300.177 280.168C298.617 281.728 298.617 284.264 300.177 285.824L364.175 349.821C364.951 350.606 365.975 350.997 366.999 350.997C368.023 350.997 369.047 350.606 369.831 349.829L489.827 229.834C491.387 228.266 491.387 225.738 489.827 224.17ZM345.832 269.832L329.832 285.831C329.048 286.607 328.025 287 327 287C325.976 287 324.953 286.608 324.169 285.831C322.609 284.272 322.609 281.736 324.169 280.176L340.168 264.176C341.728 262.616 344.264 262.616 345.824 264.176C347.384 265.736 347.392 268.264 345.832 269.832ZM414.909 274.912C412.077 277.744 408.23 279.104 403.95 279.104C396.878 279.104 388.614 275.4 381.702 268.48C376.646 263.424 373.095 257.376 371.711 251.457C370.175 244.857 371.439 239.113 375.271 235.274C379.103 231.434 384.846 230.17 391.454 231.714C397.374 233.098 403.422 236.641 408.477 241.705C419.589 252.809 422.421 267.4 414.909 274.912ZM465.828 229.834L449.828 245.833C449.044 246.609 448.02 247.001 446.996 247.001C445.972 247.001 444.948 246.609 444.164 245.833C442.604 244.273 442.604 241.737 444.164 240.177L460.164 224.178C461.724 222.618 464.26 222.618 465.82 224.178C467.38 225.738 467.388 228.266 465.828 229.834Z" fill="black"/>
</g>
</g>
<defs>
<clipPath id="clip0_804_1924">
<rect width="512" height="512" fill="white"/>
</clipPath>
<clipPath id="clip1_804_1924">
<rect width="467" height="467" fill="white" transform="translate(-32 22)"/>
</clipPath>
<clipPath id="clip2_804_1924">
<rect width="192" height="192" fill="white" transform="translate(299 159)"/>
</clipPath>
</defs>
</svg>
