<svg width="512" height="512" viewBox="0 0 512 512" fill="none" xmlns="http://www.w3.org/2000/svg">
<g clip-path="url(#clip0_804_1942)">
<rect width="512" height="512" fill="white"/>
<g clip-path="url(#clip1_804_1942)">
<path d="M292.571 288C292.571 277.577 280.686 268.617 265.143 265.966V310.034C280.686 307.383 292.571 298.423 292.571 288Z" fill="black"/>
<path d="M45.7143 320H9.14286C4.0934 320 0 324.093 0 329.143V502.857C0 507.907 4.0934 512 9.14286 512H45.7143C50.7637 512 54.8571 507.907 54.8571 502.857V329.143C54.8571 324.093 50.7637 320 45.7143 320Z" fill="black"/>
<path d="M73.1428 338.286V493.715H261.211C269.658 493.734 277.946 491.424 285.166 487.04L432.823 397.075C438.256 393.803 440.362 386.972 437.715 381.209C435.068 375.446 428.513 372.593 422.491 374.583L357.76 396.16C357.76 396.252 357.669 396.252 357.577 396.252L261.76 428.343C258.917 429.225 255.96 429.687 252.983 429.715H185.966C173.686 429.711 161.684 433.372 151.497 440.229L146.011 443.886C143.3 445.715 139.819 445.959 136.88 444.526C133.94 443.093 131.988 440.2 131.759 436.937C131.531 433.675 133.06 430.538 135.771 428.709L141.257 425.052C154.476 416.172 170.041 411.429 185.966 411.429H251.886C264.101 396.051 243.831 374.858 224.274 374.858H180.48C170.456 374.709 160.577 372.434 151.497 368.183C142.788 364.161 134.617 359.062 127.177 353.006C115.256 343.494 100.462 338.304 85.2114 338.286H73.1428Z" fill="black"/>
<path d="M246.857 246.034V201.966C231.314 204.617 219.428 213.577 219.428 224C219.428 234.423 231.314 243.383 246.857 246.034Z" fill="black"/>
<path d="M161.554 132.663C122.952 161.889 100.36 207.582 100.571 256C100.613 280.457 106.374 304.566 117.394 326.4C125.006 329.504 132.146 333.659 138.606 338.743C144.862 343.815 151.707 348.112 158.994 351.543C165.736 354.674 173.049 356.386 180.48 356.571C227.959 356.663 223.451 356.425 229.12 356.754C246.112 358.478 261.145 368.512 269.257 383.543C273.087 390.014 274.723 397.551 273.92 405.028L350.446 379.337C389.048 350.11 411.64 304.417 411.428 256C411.387 231.542 405.626 207.434 394.606 185.6C386.984 182.516 379.841 178.36 373.394 173.257C367.138 168.185 360.292 163.887 353.006 160.457C346.261 157.335 338.95 155.624 331.52 155.428H287.726C268.934 155.316 251.695 144.979 242.743 128.457C238.923 122.014 237.288 114.51 238.08 107.062L161.554 132.663ZM137.143 256C137.099 271.86 140.275 287.565 146.478 302.162C148.449 306.81 146.28 312.176 141.632 314.148C140.506 314.633 139.292 314.882 138.066 314.88C134.396 314.882 131.081 312.689 129.646 309.312C122.482 292.453 118.811 274.317 118.857 256C118.819 197.053 156.5 144.693 212.407 126.006C215.51 124.968 218.931 125.663 221.382 127.831C223.834 129.999 224.942 133.31 224.29 136.517C223.638 139.724 221.325 142.339 218.222 143.378C169.779 159.564 137.123 204.925 137.143 256ZM374.857 256C374.901 240.139 371.725 224.435 365.522 209.837C363.548 205.189 365.715 199.821 370.363 197.847C375.011 195.872 380.38 198.04 382.354 202.688C389.518 219.546 393.188 237.682 393.143 256C393.181 314.947 355.5 367.307 299.593 385.993C294.796 387.599 289.606 385.011 288 380.215C286.394 375.418 288.981 370.227 293.778 368.621C342.221 352.436 374.877 307.075 374.857 256ZM246.857 183.405V173.714C246.857 168.664 250.95 164.571 256 164.571C261.049 164.571 265.143 168.664 265.143 173.714V183.405C291.383 186.605 310.857 203.245 310.857 224C310.857 229.049 306.764 233.143 301.714 233.143C296.665 233.143 292.571 229.049 292.571 224C292.571 213.577 280.686 204.617 265.143 201.965V247.405C291.383 250.605 310.857 267.245 310.857 288C310.857 308.754 291.383 325.394 265.143 328.594V338.285C265.143 343.335 261.049 347.428 256 347.428C250.95 347.428 246.857 343.335 246.857 338.285V328.594C220.617 325.394 201.143 308.754 201.143 288C201.143 282.95 205.236 278.857 210.286 278.857C215.335 278.857 219.428 282.95 219.428 288C219.428 298.423 231.314 307.383 246.857 310.034V264.594C220.617 261.394 201.143 244.754 201.143 224C201.143 203.245 220.617 186.605 246.857 183.405Z" fill="black"/>
<path d="M438.857 18.2853H250.788C242.342 18.2662 234.054 20.5756 226.834 24.9596L79.1771 114.925C76.1543 116.703 74.0525 119.705 73.4171 123.154C72.6958 126.608 73.4952 130.205 75.6114 133.028C78.8147 137.332 84.4144 139.1 89.5085 137.417L250.24 83.6567C252.983 82.3981 256.021 81.9235 259.017 82.2853H326.034C338.314 82.2889 350.316 78.6279 360.503 71.771L365.989 68.1138C368.696 66.0776 372.307 65.7051 375.373 67.1459C378.439 68.5867 380.457 71.6046 380.617 74.9883C380.777 78.3721 379.053 81.5671 376.137 83.291L370.651 86.9481C357.471 95.8391 341.933 100.583 326.034 100.571H260.114C255.214 105.997 254.757 114.104 259.017 120.045C259.291 120.502 259.474 120.96 259.748 121.508C265.857 131.087 276.366 136.959 287.726 137.142H331.52C341.516 137.282 351.367 139.557 360.411 143.817C369.161 147.816 377.365 152.916 384.823 158.994C396.736 168.52 411.535 173.711 426.789 173.714H438.857V18.2853Z" fill="black"/>
<path d="M502.857 0H466.286C461.236 0 457.143 4.0934 457.143 9.14286V182.857C457.143 187.907 461.236 192 466.286 192H502.857C507.907 192 512 187.907 512 182.857V9.14286C512 4.0934 507.907 0 502.857 0Z" fill="black"/>
</g>
</g>
<defs>
<clipPath id="clip0_804_1942">
<rect width="512" height="512" fill="white"/>
</clipPath>
<clipPath id="clip1_804_1942">
<rect width="512" height="512" fill="white"/>
</clipPath>
</defs>
</svg>
