<svg width="512" height="512" viewBox="0 0 512 512" fill="none" xmlns="http://www.w3.org/2000/svg">
<g clip-path="url(#clip0_804_1934)">
<rect width="512" height="512" fill="white"/>
<path d="M317.793 135.195C317.793 129.785 322.178 125.399 327.588 125.399C332.998 125.399 337.384 129.785 337.384 135.195C337.384 140.605 332.998 144.99 327.588 144.99C322.178 144.99 317.793 140.605 317.793 135.195Z" fill="black"/>
<path d="M377.711 198.784C377.711 193.375 382.097 188.989 387.507 188.989C392.916 188.989 397.302 193.375 397.302 198.784C397.302 204.194 392.916 208.58 387.507 208.58C382.097 208.58 377.711 204.194 377.711 198.784Z" fill="black"/>
<path fill-rule="evenodd" clip-rule="evenodd" d="M260 166C260 111.876 303.876 68 358 68C412.124 68 456 111.876 456 166C456 220.124 412.124 264 358 264C303.876 264 260 220.124 260 166ZM327.588 111.267C314.373 111.267 303.66 121.98 303.66 135.195C303.66 148.41 314.373 159.123 327.588 159.123C340.804 159.123 351.516 148.41 351.516 135.195C351.516 121.98 340.804 111.267 327.588 111.267ZM394.478 113.056C397.663 115.311 398.417 119.721 396.162 122.906L329.364 217.259C327.109 220.444 322.698 221.198 319.513 218.943C316.328 216.688 315.574 212.278 317.829 209.093L384.627 114.74C386.882 111.555 391.292 110.801 394.478 113.056ZM387.507 174.856C374.292 174.856 363.579 185.57 363.579 198.784C363.579 212 374.292 222.712 387.507 222.712C400.72 222.712 411.436 212 411.436 198.784C411.436 185.57 400.72 174.856 387.507 174.856Z" fill="black"/>
<path fill-rule="evenodd" clip-rule="evenodd" d="M154.178 171.234C137.519 171.234 122.604 181.56 116.739 197.152L99.4256 243.181C98.8128 244.811 98.1252 246.408 97.3656 247.969H55.5672C55.8564 240.3 62.1648 234.172 69.9044 234.172H86.2384C90.6564 234.172 94.2384 230.59 94.2384 226.172C94.2384 221.754 90.6564 218.172 86.2384 218.172H69.9044C53.144 218.172 39.5566 231.759 39.5566 248.52C39.5566 257.052 46.4736 263.969 55.006 263.969H86.0404L69.8156 282.843C63.5784 290.099 60.1484 299.35 60.1484 308.918V382.55C60.1484 394.89 69.4608 405.056 81.4416 406.4V418.808C81.4416 434.272 93.9776 446.808 109.442 446.808H139.965C155.429 446.808 167.965 434.272 167.965 418.808V406.548H321.442V418.808C321.442 434.272 333.978 446.808 349.441 446.808H379.965C395.429 446.808 407.964 434.272 407.964 418.808V406.532C420.784 406.04 431.028 395.49 431.028 382.55V303.04C431.028 297.25 428.936 291.656 425.136 287.288L412.488 272.75C410.2 270.119 406.472 269.273 403.272 270.659C389.405 276.666 374.102 280 358 280C342.312 280 327.364 276.831 313.761 271.098H127.207C123.132 271.098 119.096 270.29 115.334 268.723C109.064 266.11 106.082 258.924 108.66 252.64L130.909 198.409C133.989 190.902 141.299 186 149.412 186H245.747C245.303 183.486 244.94 180.944 244.663 178.376C244.225 174.314 240.796 171.234 236.71 171.234H154.178ZM391.965 406.548H337.442V418.808C337.442 425.436 342.814 430.808 349.441 430.808H379.965C386.593 430.808 391.965 425.436 391.965 418.808V406.548ZM151.965 406.548H97.4416V418.808C97.4416 425.436 102.814 430.808 109.442 430.808H139.965C146.593 430.808 151.965 425.436 151.965 418.808V406.548ZM109.426 303.13C105.725 300.716 100.768 301.759 98.3548 305.46C95.9412 309.16 96.9844 314.117 100.685 316.531L101.072 316.784C112.772 324.414 126.438 328.477 140.406 328.477H163.965C168.383 328.477 171.965 324.895 171.965 320.477C171.965 316.058 168.383 312.477 163.965 312.477H140.406C129.542 312.477 118.912 309.317 109.813 303.382L109.426 303.13ZM392.336 316.531C396.036 314.117 397.08 309.16 394.666 305.46C392.252 301.759 387.296 300.716 383.595 303.13L383.208 303.382C374.108 309.317 363.479 312.477 352.615 312.477H329.056C324.637 312.477 321.056 316.058 321.056 320.477C321.056 324.895 324.637 328.477 329.056 328.477H352.615C366.583 328.477 380.249 324.414 391.948 316.784L392.336 316.531ZM175.13 362.346C175.13 357.928 178.712 354.346 183.13 354.346H308.757C313.175 354.346 316.757 357.928 316.757 362.346C316.757 366.764 313.175 370.346 308.757 370.346H183.13C178.712 370.346 175.13 366.764 175.13 362.346Z" fill="black"/>
</g>
<defs>
<clipPath id="clip0_804_1934">
<rect width="512" height="512" fill="white"/>
</clipPath>
</defs>
</svg>
