<svg width="512" height="512" viewBox="0 0 512 512" fill="none" xmlns="http://www.w3.org/2000/svg">
<g clip-path="url(#clip0_804_1931)">
<rect width="512" height="512" fill="white"/>
<g clip-path="url(#clip1_804_1931)">
<path d="M6.23085 228.276C16.4209 241.575 35.3259 243.769 48.3009 233.784L256 67.837L463.697 233.804C476.463 243.626 495.402 241.753 505.767 228.311C515.845 215.246 513.481 196.405 500.274 186.241L274.296 6.211C269.022 2.153 262.679 0 256 0C249.306 0 242.992 2.139 237.704 6.211L11.7389 186.22C-1.55115 196.426 -3.79615 215.306 6.23085 228.276Z" fill="black"/>
<path d="M437 30H407C398.716 30 392 36.716 392 45V61.181L452 109.191V45C452 36.716 445.283 30 437 30Z" fill="black"/>
<path d="M452 436V261.105C449.834 259.842 447.388 259.113 445.394 257.578L256 106.304L67.075 257.183C64.892 258.864 62.333 259.648 60 261.006V436C60 444.284 66.716 451 75 451H118.715C110.634 432.592 106 412.354 106 391C106 308.295 173.295 240 256 240C338.705 240 407 308.295 407 391C407 412.354 402.366 432.592 394.285 451H437C445.283 451 452 444.284 452 436Z" fill="black"/>
<path d="M377 391C377 324.725 322.275 270 256 270C189.725 270 136 324.725 136 391C136 457.275 189.725 512 256 512C322.275 512 377 457.275 377 391ZM241 482V463.173C229.333 459.026 219.558 450.379 214.545 438.52C211.322 430.888 214.882 422.084 222.514 418.862C230.102 415.669 238.95 419.199 242.172 426.831C244.53 432.396 249.95 436 256 436C264.276 436 271 429.276 271 421C271 412.724 264.276 406 256 406C231.186 406 211 385.814 211 361C211 341.47 223.578 324.976 241 318.763V300C241 291.709 247.709 285 256 285C264.291 285 271 291.709 271 300V318.827C282.664 322.974 292.431 331.622 297.455 343.48C300.678 351.097 297.118 359.901 289.486 363.138C281.942 366.361 273.065 362.816 269.828 355.169C267.47 349.604 262.035 346 256 346C247.724 346 241 352.724 241 361C241 369.276 247.724 376 256 376C280.814 376 301 396.186 301 421C301 440.53 288.422 457.024 271 463.237V482C271 490.291 264.291 497 256 497C247.709 497 241 490.291 241 482Z" fill="black"/>
</g>
</g>
<defs>
<clipPath id="clip0_804_1931">
<rect width="512" height="512" fill="white"/>
</clipPath>
<clipPath id="clip1_804_1931">
<rect width="512" height="512" fill="white"/>
</clipPath>
</defs>
</svg>
