<svg width="512" height="512" viewBox="0 0 512 512" fill="none" xmlns="http://www.w3.org/2000/svg">
<g clip-path="url(#clip0_749_136)">
<rect width="512" height="512" fill="white"/>
<path d="M282.904 216.935C290.167 216.935 296.074 221.882 296.074 227.963C296.074 233.485 300.552 237.963 306.074 237.963C311.596 237.963 316.075 233.485 316.075 227.963C316.075 214.113 306.322 202.356 292.905 198.379V196.989C292.905 191.466 288.427 186.988 282.904 186.988C277.382 186.988 272.904 191.466 272.904 196.989V198.379C259.487 202.357 249.735 214.113 249.735 227.963C249.735 245.071 264.615 258.99 282.904 258.99C290.167 258.99 296.074 263.937 296.074 270.017C296.074 276.097 290.167 281.043 282.904 281.043C275.643 281.043 269.736 276.097 269.736 270.017C269.736 264.495 265.258 260.017 259.736 260.017C254.213 260.017 249.735 264.495 249.735 270.017C249.735 283.867 259.487 295.623 272.904 299.6V300.99C272.904 306.512 277.382 310.99 282.904 310.99C288.427 310.99 292.905 306.512 292.905 300.99V299.6C306.322 295.623 316.075 283.867 316.075 270.017C316.075 252.908 301.194 238.989 282.904 238.989C275.643 238.989 269.736 234.043 269.736 227.963C269.736 221.882 275.643 216.935 282.904 216.935Z" fill="url(#paint0_linear_749_136)"/>
<path d="M510.495 334.057C506.574 320.46 495.539 310.187 481.699 307.243C472.836 305.356 463.617 306.733 455.745 310.917C460.303 282.571 457.909 253.249 448.53 225.917C446.737 220.693 441.048 217.916 435.824 219.704C430.6 221.497 427.819 227.185 429.611 232.409C440.69 264.688 440.78 300.097 429.926 332.414L350.233 403.193C345.315 407.559 339.923 411.261 334.192 414.268C335.812 407.712 335.702 400.771 333.756 394.177C330.683 383.762 323.304 375.1 313.511 370.41L242.913 336.596C212.048 321.812 175.923 320.102 143.8 331.896L136.624 334.531C116.705 278.262 130.569 215.859 173.225 173.204L243.825 102.605H321.985L381.804 162.424C385.71 166.328 392.04 166.328 395.947 162.424C399.852 158.519 399.852 152.187 395.947 148.281L338.791 91.1278L359.453 31.6678C362.223 23.6965 359.164 15.0002 352.014 10.5181C344.865 6.03693 335.703 7.07596 329.736 13.0402L329.613 13.1632C325.48 17.2983 318.752 17.2983 314.618 13.1632C297.067 -4.38642 268.511 -4.38642 250.959 13.1632C248.957 15.1662 246.294 16.2683 243.462 16.2683C240.63 16.2683 237.967 15.1652 235.965 13.1632C229.992 7.18997 220.824 6.15593 213.67 10.6511C206.517 15.1452 203.47 23.8535 206.261 31.8278L227.013 91.1338L159.082 159.063C133.942 184.204 117.231 215.901 110.757 250.727C105.077 281.268 107.538 312.41 117.833 341.432L102.067 347.22C96.8212 340.4 88.5859 335.992 79.3366 335.992H28.668C12.8604 335.993 0 348.853 0 364.66V483.33C0 499.137 12.8604 511.998 28.668 511.998H292.241C333.64 511.998 372.79 496.107 402.478 467.253L500.401 372.085C510.548 362.225 514.415 347.653 510.495 334.057ZM243.461 36.2699C251.635 36.2699 259.321 33.0868 265.102 27.3066C274.854 17.5543 290.723 17.5543 300.475 27.3066C306.255 33.0868 313.941 36.2699 322.116 36.2699C327.92 36.2699 333.476 34.6659 338.28 31.6658L320.58 82.6055H245.218L227.42 31.7418C232.196 34.6919 237.706 36.2699 243.461 36.2699ZM20.0007 483.331V364.66C20.0007 359.881 23.8888 355.993 28.668 355.993H79.3356C84.1148 355.993 88.0029 359.881 88.0029 364.66V483.33C88.0029 488.109 84.1148 491.997 79.3356 491.997H28.668C23.8888 491.998 20.0007 488.11 20.0007 483.331ZM486.461 357.744L388.539 452.912C362.604 478.117 328.405 491.998 292.241 491.998H106.661C107.531 489.262 108.004 486.351 108.004 483.331V366.348L150.693 350.673C177.781 340.728 208.247 342.17 234.274 354.637L304.872 388.451C309.633 390.731 313.078 394.776 314.572 399.84C316.067 404.904 315.369 410.173 312.608 414.674C308.172 421.903 299.427 425.155 291.345 422.588L197.556 392.763C192.293 391.091 186.669 393.999 184.994 399.263C183.321 404.526 186.23 410.15 191.494 411.824L285.283 441.648C289.147 442.876 293.08 443.466 296.963 443.466C297.431 443.466 297.897 443.438 298.363 443.421C322.415 443.075 345.5 434.147 363.512 418.15L461.622 331.013C465.939 327.18 471.891 325.608 477.536 326.808C484.239 328.234 489.375 333.016 491.274 339.601C493.176 346.184 491.376 352.966 486.461 357.744Z" fill="url(#paint1_linear_749_136)"/>
<path d="M418.753 198.996C421.383 198.996 423.963 197.936 425.822 196.066C427.682 194.206 428.753 191.635 428.753 188.996C428.753 186.366 427.683 183.796 425.822 181.926C423.963 180.067 421.383 178.996 418.753 178.996C416.122 178.996 413.553 180.066 411.683 181.926C409.823 183.796 408.753 186.366 408.753 188.996C408.753 191.636 409.822 194.206 411.683 196.066C413.542 197.937 416.122 198.996 418.753 198.996Z" fill="url(#paint2_linear_749_136)"/>
</g>
<defs>
<linearGradient id="paint0_linear_749_136" x1="282.905" y1="186.988" x2="282.905" y2="310.99" gradientUnits="userSpaceOnUse">
<stop stop-color="#013878"/>
<stop offset="1" stop-color="#ED1E32"/>
</linearGradient>
<linearGradient id="paint1_linear_749_136" x1="256" y1="0.000976562" x2="256" y2="511.998" gradientUnits="userSpaceOnUse">
<stop stop-color="#013878"/>
<stop offset="1" stop-color="#ED1E32"/>
</linearGradient>
<linearGradient id="paint2_linear_749_136" x1="418.753" y1="178.996" x2="418.753" y2="198.996" gradientUnits="userSpaceOnUse">
<stop stop-color="#013878"/>
<stop offset="1" stop-color="#ED1E32"/>
</linearGradient>
<clipPath id="clip0_749_136">
<rect width="512" height="512" fill="white"/>
</clipPath>
</defs>
</svg>
