<svg width="512" height="512" viewBox="0 0 512 512" fill="none" xmlns="http://www.w3.org/2000/svg">
<g clip-path="url(#clip0_804_1895)">
<rect width="512" height="512" fill="white"/>
<g clip-path="url(#clip1_804_1895)">
<path d="M377.598 146.286H134.402C131.656 152.688 126.17 158.17 118.857 161.831V223.085C125.259 225.831 130.741 231.313 134.402 238.63H378.513C381.259 232.228 386.741 226.741 394.058 223.085V161.831C386.741 158.17 381.259 152.688 377.598 146.286ZM256 219.429C240.455 219.429 228.571 207.545 228.571 192C228.571 176.456 240.455 164.572 256 164.572C271.545 164.572 283.429 176.456 283.429 192C283.429 207.545 271.545 219.429 256 219.429Z" fill="black"/>
<path d="M265.143 192C265.143 197.049 261.049 201.143 256 201.143C250.951 201.143 246.857 197.049 246.857 192C246.857 186.951 250.951 182.857 256 182.857C261.049 182.857 265.143 186.951 265.143 192Z" fill="black"/>
<path d="M73.1428 109.714V274.285H438.857V109.714H73.1428ZM411.429 236.799L404.116 237.714C398.629 238.629 394.973 243.2 393.143 248.687L392.228 256H119.772L118.857 248.687C117.942 243.2 113.371 239.544 107.884 237.714L100.571 236.799V148.116L107.884 146.285C113.371 145.37 117.027 140.799 118.857 135.312L120.687 128H392.228L394.058 135.312C394.973 140.799 399.545 144.455 405.027 146.285L412.344 148.116V236.799H411.429Z" fill="black"/>
<path d="M73.1428 73.1426H438.857V91.4283H73.1428V73.1426Z" fill="black"/>
<path d="M91.4285 36.5713H420.571V54.857H91.4285V36.5713Z" fill="black"/>
<path d="M448 320.915H512V430.629H448V320.915Z" fill="black"/>
<path d="M344.688 289.831L228.571 383.085L265.143 402.286L347.429 353.831L356.571 369.371L265.143 423.313L13.7143 288.916C12.7991 288 10.9732 288 9.14286 288C7.3125 288 5.48661 288.916 4.57143 288.916C1.83036 290.742 0 293.487 0 297.143V320C0 323.657 1.83036 326.402 4.57143 328.228L263.313 474.514C265.143 475.429 267.884 475.429 269.714 475.429L429.714 433.371V318.17L353.83 288C351.085 287.085 347.429 287.085 344.688 289.831Z" fill="black"/>
</g>
</g>
<defs>
<clipPath id="clip0_804_1895">
<rect width="512" height="512" fill="white"/>
</clipPath>
<clipPath id="clip1_804_1895">
<rect width="512" height="512" fill="white"/>
</clipPath>
</defs>
</svg>
