<svg width="512" height="512" viewBox="0 0 512 512" fill="none" xmlns="http://www.w3.org/2000/svg">
<g clip-path="url(#clip0_804_1906)">
<rect width="512" height="512" fill="white"/>
<g clip-path="url(#clip1_804_1906)">
<path d="M42.2968 317.657C40.7965 316.156 38.7618 315.313 36.6401 315.313C34.5184 315.313 32.4836 316.156 30.9833 317.657L2.31995 346.32C0.819195 347.829 -0.0231934 349.871 -0.0231934 352C-0.0231934 354.128 0.819195 356.17 2.31995 357.68L154.32 509.68C155.837 511.167 157.876 512 160 512C162.124 512 164.163 511.167 165.68 509.68L194.343 481.017C195.843 479.517 196.686 477.482 196.686 475.36C196.686 473.238 195.843 471.204 194.343 469.703L42.2968 317.657Z" fill="black"/>
<path d="M501.36 258.64C497.996 255.267 494 252.591 489.6 250.766C485.2 248.94 480.484 248 475.72 248C470.956 248 466.24 248.94 461.84 250.766C457.44 252.591 453.444 255.267 450.08 258.64L393.6 315.04C397.94 322.956 400.143 331.867 399.993 340.894C399.842 349.921 397.342 358.753 392.74 366.52C388.138 374.287 381.592 380.721 373.747 385.189C365.902 389.657 357.028 392.004 348 392H216C213.878 392 211.843 391.157 210.343 389.657C208.843 388.156 208 386.122 208 384C208 381.878 208.843 379.843 210.343 378.343C211.843 376.843 213.878 376 216 376H348C357.543 375.985 366.692 372.188 373.44 365.44C380.188 358.692 383.986 349.543 384 340C383.992 335.57 383.179 331.179 381.6 327.04C378.97 320.263 374.355 314.439 368.36 310.328C362.365 306.217 355.269 304.012 348 304H219.28L215.12 299.76C197.305 281.984 173.167 272 148 272C122.833 272 98.6946 281.984 80.88 299.76L64 316.64L195.76 448.4L214.72 432H356C364.573 431.97 373.055 430.236 380.952 426.899C388.849 423.562 396.004 418.687 402 412.56L501.36 309.92C508.16 303.12 511.98 293.897 511.98 284.28C511.98 274.663 508.16 265.44 501.36 258.64Z" fill="black"/>
<path d="M344 232H280V288H344V232Z" fill="black"/>
<path d="M264 224C264.006 221.88 264.851 219.849 266.35 218.35C267.849 216.851 269.88 216.006 272 216H352C354.12 216.006 356.151 216.851 357.65 218.35C359.149 219.849 359.994 221.88 360 224V289.44C365.674 290.802 371.082 293.1 376 296.24C378.759 298.036 381.356 300.071 383.76 302.32L392 294.08V64C391.994 61.8802 391.149 59.8491 389.65 58.3501C388.151 56.8512 386.12 56.0063 384 56H240C237.88 56.0063 235.849 56.8512 234.35 58.3501C232.851 59.8491 232.006 61.8802 232 64V288H264V224ZM320 80H360V96H320V80ZM320 112H360V128H320V112ZM320 144H360V160H320V144ZM320 176H360V192H320V176ZM264 80H304V96H264V80ZM264 112H304V128H264V112ZM264 144H304V160H264V144ZM264 176H304V192H264V176Z" fill="black"/>
<path d="M216 279.28V112H136C133.88 112.006 131.849 112.851 130.35 114.35C128.851 115.849 128.006 117.88 128 120V257.84C143.351 255.005 159.127 255.45 174.294 259.145C189.46 262.841 203.673 269.702 216 279.28ZM176 128H200V144H176V128ZM176 160H200V176H176V160ZM176 192H200V208H176V192ZM176 224H200V240H176V224ZM144 128H168V144H144V128ZM144 160H168V176H144V160ZM144 192H168V208H144V192ZM144 224H168V240H144V224Z" fill="black"/>
<path d="M368 32C367.994 29.8802 367.149 27.849 365.65 26.3501C364.151 24.8512 362.12 24.0063 360 24H320V7.60156C320 5.47983 319.157 3.445 317.657 1.94471C316.157 0.444417 314.122 -0.398437 312 -0.398438C309.878 -0.398437 307.843 0.444417 306.343 1.94471C304.843 3.445 304 5.47983 304 7.60156V24H264C261.88 24.0063 259.849 24.8512 258.35 26.3501C256.851 27.849 256.006 29.8802 256 32V40H368V32Z" fill="black"/>
<path d="M475.68 232C482.661 231.961 489.575 233.349 496 236.08V120C495.994 117.88 495.149 115.849 493.65 114.35C492.151 112.851 490.12 112.006 488 112H408V278.08L438.8 247.36C443.604 242.459 449.345 238.574 455.68 235.935C462.016 233.296 468.817 231.958 475.68 232ZM456 128H480V144H456V128ZM456 160H480V176H456V160ZM456 192H480V208H456V192ZM424 128H448V144H424V128ZM424 160H448V176H424V160ZM424 192H448V208H424V192Z" fill="black"/>
</g>
</g>
<defs>
<clipPath id="clip0_804_1906">
<rect width="512" height="512" fill="white"/>
</clipPath>
<clipPath id="clip1_804_1906">
<rect width="512" height="512" fill="white"/>
</clipPath>
</defs>
</svg>
